<?xml version="1.0" encoding="utf-8"?>
<!-- Generator: Adobe Illustrator 27.5.0, SVG Export Plug-In . SVG Version: 6.00 Build 0)  -->
<svg version="1.1" id="Reference" xmlns="http://www.w3.org/2000/svg"
	xmlns:xlink="http://www.w3.org/1999/xlink" x="0px" y="0px"
	width="80" height="80" viewBox="0 0 80 80" style="enable-background:new 0 0 80 80;"
	xml:space="preserve">
<style type="text/css">
	.st0{fill:#FFFFFF;}
	.st1{fill:#BC70C4;}
</style>
<g>
	<path d="M62.3,10.2H17.7c-4.1,0-7.4,3.3-7.4,7.4v44.6c0,4.1,3.3,7.4,7.4,7.4h44.6c4.1,0,7.4-3.3,7.4-7.4V17.7
		C69.8,13.6,66.4,10.2,62.3,10.2z M41.5,13.2h11.2v11.2H41.5C41.5,24.4,41.5,13.2,41.5,13.2z M13.2,17.7c0-2.5,2-4.5,4.5-4.5h20.8
		v11.2H13.2C13.2,24.4,13.2,17.7,13.2,17.7z M13.2,27.4h39.4v11.2H13.2V27.4z M38.5,41.5v11.2H27.4V41.5
		C27.4,41.5,38.5,41.5,38.5,41.5z M24.4,66.8h-6.7c-2.5,0-4.5-2-4.5-4.5v-6.7h11.2V66.8z M24.4,52.6H13.2V41.5h11.2V52.6z
		 M66.8,62.3c0,2.5-2,4.5-4.5,4.5h-35V55.6h39.4V62.3z M66.8,52.6H41.5V41.5h25.3V52.6z M66.8,38.5H55.6V27.4h11.2V38.5z M66.8,24.4
		H55.6V13.2h6.7c2.5,0,4.5,2,4.5,4.5V24.4z"/>
	<path class="st0" d="M24.4,55.6v11.2h-6.7c-2.5,0-4.5-2-4.5-4.5v-6.7H24.4z"/>
	<rect x="27.4" y="41.5" class="st0" width="11.2" height="11.2"/>
	<rect x="55.6" y="27.4" class="st0" width="11.2" height="11.2"/>
	<rect x="41.5" y="13.2" class="st0" width="11.2" height="11.2"/>
	<path class="st1" d="M66.8,17.7v6.7H55.6V13.2h6.7C64.8,13.2,66.8,15.2,66.8,17.7z"/>
	<rect x="13.2" y="41.5" class="st1" width="11.2" height="11.2"/>
	<path class="st1" d="M66.8,55.6v6.7c0,2.5-2,4.5-4.5,4.5h-35V55.6H66.8z"/>
	<rect x="41.5" y="41.5" class="st1" width="25.3" height="11.2"/>
	<rect x="13.2" y="27.4" class="st1" width="39.4" height="11.2"/>
	<path class="st1" d="M38.5,13.2v11.2H13.2v-6.7c0-2.5,2-4.5,4.5-4.5H38.5z"/>
</g>
</svg>