<?xml version="1.0" encoding="utf-8"?>
<!-- Generator: Adobe Illustrator 27.5.0, SVG Export Plug-In . SVG Version: 6.00 Build 0)  -->
<svg version="1.1" id="Reference" xmlns="http://www.w3.org/2000/svg"
	xmlns:xlink="http://www.w3.org/1999/xlink" x="0px" y="0px"
	width="80" height="80" viewBox="0 0 80 80" style="enable-background:new 0 0 80 80;"
	xml:space="preserve">
<style type="text/css">
	.st0{fill:#B3A7FE;}
	.st1{fill:#FFFFFF;}
	.st2{fill:#BC70C4;}
</style>
<g>
	<g id="Digits">
		<path class="st0" d="M13,0h54c7.2,0,13,5.8,13,13v54c0,7.2-5.8,13-13,13H13C5.8,80,0,74.2,0,67V13C0,5.8,5.8,0,13,0z"/>
	</g>
	<g>
		<path d="M62.4,10.2H17.6c-4.1,0-7.4,3.3-7.4,7.4v44.7c0,4.1,3.3,7.4,7.4,7.4h44.7c4.1,0,7.4-3.3,7.4-7.4V17.6
			C69.8,13.5,66.5,10.2,62.4,10.2z M41.5,13.2h11.2v11.2H41.5V13.2z M13.2,17.6c0-2.5,2-4.5,4.5-4.5h20.8v11.2H13.2V17.6z
			 M13.2,27.3h39.4v11.2H13.2V27.3z M38.5,41.5v11.2H27.3V41.5H38.5z M24.3,66.8h-6.7c-2.5,0-4.5-2-4.5-4.5v-6.7h11.2V66.8z
			 M24.3,52.7H13.2V41.5h11.2v11.2H24.3z M66.8,62.4c0,2.5-2,4.5-4.5,4.5h-35V55.7h39.4v6.7H66.8z M66.8,52.7H41.5V41.5h25.3V52.7z
			 M66.8,38.5H55.7V27.3h11.2v11.2H66.8z M66.8,24.3H55.7V13.2h6.7c2.5,0,4.5,2,4.5,4.5v6.6H66.8z"/>
		<path class="st1" d="M24.3,55.7v11.2h-6.7c-2.5,0-4.5-2-4.5-4.5v-6.7C13.1,55.7,24.3,55.7,24.3,55.7z"/>
		<rect x="27.3" y="41.5" class="st1" width="11.2" height="11.2"/>
		<rect x="55.7" y="27.3" class="st1" width="11.2" height="11.2"/>
		<rect x="41.5" y="13.2" class="st1" width="11.2" height="11.2"/>
		<path class="st2" d="M66.8,17.6v6.7H55.7V13.2h6.7C64.8,13.2,66.8,15.2,66.8,17.6z"/>
		<rect x="13.2" y="41.5" class="st2" width="11.2" height="11.2"/>
		<path class="st2" d="M66.8,55.7v6.7c0,2.5-2,4.5-4.5,4.5h-35V55.7H66.8z"/>
		<rect x="41.5" y="41.5" class="st2" width="25.3" height="11.2"/>
		<rect x="13.2" y="27.3" class="st2" width="39.4" height="11.2"/>
		<path class="st2" d="M38.5,13.2v11.2H13.2v-6.7c0-2.5,2-4.5,4.5-4.5C17.7,13.2,38.5,13.2,38.5,13.2z"/>
	</g>
</g>
</svg>