<svg width="75" height="78" viewBox="0 0 75 78" fill="none" xmlns="http://www.w3.org/2000/svg" class="mx-auto">
    <mask id="mask0_102_393" style="mask-type:alpha" maskUnits="userSpaceOnUse" x="0" y="0" width="75" height="78">
        <path d="M46.4792 9.33252C48.0457 10.1148 49.1931 10.9847 49.9733 11.8173C49.9733 11.8173 50.2402 12.0719 50.7264 12.7788C47.8183 14.0117 46.7399 17.5415 46.6479 20.6999L46.6228 20.7145C46.6228 20.8669 46.6268 21.3321 46.6268 21.3321C46.6268 21.3361 46.6475 23.0824 46.6475 23.0885L46.7331 23.0406C46.9229 24.6697 47.2672 26.2387 47.9554 28.1225L47.9116 28.1412L48.3017 29.0654C48.3017 29.0695 48.7149 30.0626 48.717 30.0667L48.7503 30.0521C49.2864 31.1974 49.9186 32.3637 50.851 33.6923C49.3927 34.8314 47.9886 36.2249 47.0522 37.2907C40.033 27.8154 39.357 14.7354 46.4791 9.3324L46.4792 9.33252Z" fill="white"></path>
        <path d="M48.73 47.8674C47.2947 47.2895 45.3924 46.716 43.7231 46.3904C48.3938 35.5548 59.4542 28.5333 67.6239 31.9258C67.7261 33.7427 67.5822 35.6808 66.7625 37.2977C64.2822 35.4285 60.6125 36.2733 57.8652 37.7588L57.836 37.7421C57.0976 38.1801 56.651 38.4474 55.7937 38.9563L55.8834 39.0086C54.5191 40.0038 53.2526 41.22 52.1199 42.5843L52.0887 42.5612C51.319 43.5626 51.613 43.1765 50.8266 44.2239L50.8745 44.2593C49.9985 45.521 49.5893 46.0531 48.7299 47.8679L48.73 47.8674Z" fill="white"></path>
        <path d="M66.454 46.4165C63.7588 47.1801 60.6547 46.9296 57.5733 45.7303C57.5461 45.7218 57.521 45.7096 57.4941 45.6991C56.2487 45.2067 54.8386 44.4662 53.8349 43.782C54.9717 42.4551 56.0712 41.3434 57.8819 40.1771C60.6688 41.6874 64.3698 42.4717 66.8861 40.4983L66.9842 40.6212L67.8018 39.6074C67.8018 39.6074 67.8018 39.6054 67.8039 39.6054L68.3234 38.9545L68.2504 38.8648C69.2079 37.3209 69.7212 35.2579 69.7314 32.8965L69.8567 32.9569C69.6856 31.1547 69.7379 31.6908 69.6231 30.5204L69.5898 30.5038C68.8014 24.2495 65.1714 18.6233 60.8551 15.3525C60.9386 13.2664 60.3128 10.544 58.9774 8.30985C75.9827 15.0646 80.8642 42.4552 66.454 46.4171L66.454 46.4165Z" fill="white"></path>
        <path d="M57.0765 20.8713C55.4515 23.6083 52.7226 25.7634 49.844 27.2193C49.1618 25.3814 48.8447 23.6623 48.751 21.9018C51.4524 20.2601 54.006 17.4522 53.5239 14.2833L53.674 14.2602L53.2193 13.0586C53.2193 13.0566 53.2173 13.0545 53.2173 13.0525L52.9253 12.2661L52.8584 12.2767C51.8027 10.3929 50.2341 9.05987 48.3857 7.9897L48.4648 7.93537C46.7311 7.13847 46.7688 7.15511 46.7688 7.15511L46.2388 6.91948L46.2096 6.93815C40.5604 4.57867 33.526 4.89784 28.734 6.92559C26.4102 5.55727 23.8586 4.97733 21.706 5.03131C37.55 -7.448 66.4636 5.35896 57.076 20.871L57.0765 20.8713Z" fill="white"></path>
        <path d="M16.3513 16.344C17.8616 15.3552 19.6119 14.5373 21.4437 14.4395C21.2016 16.5402 22.228 19.394 26.2855 21.9161V21.9433L26.8175 22.2479C26.8175 22.2479 26.8196 22.2499 26.8216 22.2499L28.357 23.1157V23.0176C29.8612 23.6872 31.5466 24.1795 33.3261 24.4986L33.32 24.5676C33.3261 24.5676 34.3525 24.6823 34.359 24.6864L35.3915 24.8283L35.3976 24.7761C36.5806 24.8698 38.0138 24.918 39.6157 24.7801C39.8598 26.5576 40.2686 28.1429 40.8445 29.8661C29.3691 31.1325 17.52 25.575 16.3509 16.3437L16.3513 16.344Z" fill="white"></path>
        <path d="M28.0377 8.95702C32.4436 12.2322 33.8123 16.9969 33.4972 22.4125C31.7217 22.0848 29.9612 21.532 28.3695 20.6934C28.2714 17.4973 27.1261 13.9322 24.141 12.7431L24.1848 12.6304C22.6263 12.3612 23.177 12.4447 22.0755 12.3072L22.067 12.3303C20.2834 12.3303 18.4601 12.7139 16.1425 14.0304L16.1364 13.9428C15.5106 14.3828 14.6281 14.9858 14.1439 15.3488V15.3573C9.66714 18.7306 6.14178 24.5944 5.39095 30.5233C3.49059 31.5457 1.46489 33.4919 0.221474 35.6761C-2.29621 18.2345 17.2589 1.15094 28.0381 8.95735L28.0377 8.95702Z" fill="white"></path>
        <path d="M8.64121 31.4662C12.9449 30.2917 17.4637 31.7416 21.1579 34.1428C20.0167 35.5091 18.738 36.69 17.1212 37.731C14.3404 36.2187 10.6062 35.434 8.11699 37.4118L8.01683 37.2865C7.06174 38.4756 7.16595 38.3462 6.67772 38.9553L6.7531 39.047C5.5807 40.9433 5.28456 42.9147 5.27613 45.0134L5.1488 44.9529C5.21977 45.6914 5.30941 46.651 5.38241 47.3894L5.41772 47.4061C6.1939 53.5538 9.76718 59.2743 14.1498 62.5617C14.0809 64.7459 14.7277 67.412 16.0295 69.6023C-0.736756 62.9457 -6.09546 35.6508 8.64051 31.4664L8.64121 31.4662Z" fill="white"></path>
        <path d="M7.38276 45.9833C7.268 44.1121 7.40993 42.3014 8.24213 40.6115C10.7642 42.4867 14.3711 41.6399 17.1394 40.1504L17.1686 40.167C17.8905 39.7372 18.2721 39.51 19.2109 38.9528L19.1233 38.9005C20.4856 37.9074 21.7541 36.6915 22.8868 35.3248L22.92 35.3479L23.5377 34.5385C23.5377 34.5385 24.0341 33.8815 24.1801 33.6872L24.1301 33.6519C25.0061 32.398 25.432 31.8371 26.2767 30.041C27.933 30.7105 29.8357 31.2365 31.2791 31.5284C26.4583 42.7057 15.289 49.3291 7.38264 45.9835L7.38276 45.9833Z" fill="white"></path>
        <path d="M28.509 68.5785C26.8735 67.7378 25.2882 66.649 24.2764 65.1323C27.1825 63.8808 28.2649 60.3801 28.3569 57.1884L28.3841 57.1738L28.38 56.5586V56.5566L28.3613 54.7916L28.2717 54.8415C28.0693 52.9639 27.6792 51.5039 27.0534 49.7869L27.0972 49.7682C26.9054 49.3112 27.1264 49.8392 26.2918 47.8427L26.2585 47.8573C25.7309 46.7266 25.1632 45.6565 24.1578 44.2151C25.6182 43.0739 27.0011 41.7035 27.9566 40.6168C34.365 49.2926 36.2464 62.7418 28.509 68.5785Z" fill="white"></path>
        <path d="M53.5618 63.4622C53.9414 60.3747 51.4068 57.6462 48.722 56.0063V55.9812C48.0712 55.6097 47.4056 55.2427 46.6505 54.8193L46.6485 54.9069C45.109 54.1956 43.3482 53.7158 41.6774 53.4214L41.6814 53.3776C40.9952 53.288 40.3464 53.2044 39.6119 53.1084L39.6075 53.1399C38.3017 53.0211 37.1564 52.9919 35.383 53.1233C35.1721 51.6212 34.7467 49.7832 34.1582 48.0435C38.5097 47.5553 39.1481 48.0873 41.2342 48.0873V48.0934C52.8121 49.8186 57.9874 56.1666 58.6471 61.528C57.1104 62.5422 55.4437 63.3581 53.5619 63.4624L53.5618 63.4622Z" fill="white"></path>
        <path d="M47.5843 69.3535C42.7988 66.4559 41.1925 61.0322 41.5076 55.5095C43.3184 55.8433 44.9328 56.3417 46.6374 57.2307C46.7396 60.4434 47.8828 63.9899 50.8765 65.1745L50.8242 65.3144C51.3498 65.3979 52.4014 65.5606 52.9269 65.6441L52.95 65.5857C54.8671 65.6587 57.4208 64.7949 58.8641 63.8667L58.8726 63.975C59.4797 63.5431 60.3641 62.9173 60.865 62.5543L60.8629 62.5166C65.7757 58.7929 68.9466 52.8536 69.6159 47.3819C71.3975 46.4556 73.5067 44.4737 74.7854 42.2291C77.1672 58.8493 59.1813 76.0563 47.5842 69.3529L47.5843 69.3535Z" fill="white"></path>
        <path d="M16.5351 60.3711C17.574 56.0382 21.1643 52.7234 25.161 50.6932C25.7368 52.3162 26.1602 53.9266 26.2539 55.994C23.538 57.6839 20.9989 60.4668 21.4811 63.6271L21.331 63.6523C21.9276 65.2295 21.7045 64.6328 22.0756 65.6467L22.1445 65.6361C23.025 67.397 24.8982 68.9279 26.6006 69.9167L26.513 69.9751L28.205 70.7513C28.207 70.7513 28.7411 70.9913 28.7431 70.9913L28.7744 70.9706C34.2524 73.2798 40.9199 73.2133 46.2499 70.9852C48.336 72.1763 50.3199 72.8795 53.2966 72.8795C39.1154 84.0524 13.0555 75.0654 16.535 60.3706L16.5351 60.3711Z" fill="white"></path>
    </mask>
    <g mask="url(#mask0_102_393)">
        <rect x="-4.88892" y="-3.4551" width="84.7484" height="84.7484" fill="url(#paint0_linear_102_393)"></rect>
        <rect x="-4.88892" y="-3.4551" width="84.7484" height="84.7484" fill="#B6B6B6" fill-opacity="0.5"></rect>
        <use href="#part1"></use>
        <use href="#part2"></use>
        <use href="#part3"></use>
        <use href="#part4"></use>
    </g>
    <defs>
        <linearGradient id="paint0_linear_102_393" x1="70.5" y1="59" x2="10.5355" y2="11.866" gradientUnits="userSpaceOnUse">
            <stop stop-color="#FF0303"></stop>
            <stop offset="1" stop-color="#115CFF"></stop>
        </linearGradient>
        <path id="part1" d="M28.0377 8.95695C32.4436 12.2322 33.8123 16.9968 33.4972 22.4124C31.7217 22.0847 29.9612 21.532 28.3695 20.6933C28.2714 17.4972 27.1261 13.9322 24.141 12.7431L24.1848 12.6303C22.6263 12.3611 23.177 12.4446 22.0755 12.3071L22.067 12.3302C20.2834 12.3302 18.4601 12.7139 16.1425 14.0303L16.1364 13.9427C15.5106 14.3827 14.6281 14.9857 14.1439 15.3487V15.3572C9.66715 18.7306 6.14178 24.5944 5.39096 30.5233C3.49059 31.5456 1.46489 33.4918 0.221477 35.6761C-2.2962 18.2344 17.2586 1.15054 28.0377 8.95695Z" fill="#115CFF"></path>
        <path id="part2" d="M7.38277 45.9832C7.268 44.1121 7.40993 42.3013 8.24213 40.6114C10.7642 42.4866 14.3711 41.6398 17.1394 40.1503L17.1686 40.1669C17.8905 39.7371 18.2721 39.5099 19.2109 38.9527L19.1233 38.9004C20.4856 37.9073 21.7541 36.6914 22.8868 35.3248L22.92 35.3478L23.5376 34.5384C23.5376 34.5384 24.0341 33.8814 24.1801 33.6872L24.1301 33.6519C25.0061 32.3979 25.432 31.837 26.2767 30.0409C27.933 30.7104 29.8357 31.2364 31.2791 31.5284C26.4583 42.7056 15.2891 49.3288 7.38277 45.9832Z" fill="#115CFF"></path>
        <path id="part3" d="M48.73 47.8674C47.2947 47.2895 45.3924 46.716 43.7231 46.3904C48.3938 35.5548 59.4542 28.5333 67.6239 31.9258C67.7261 33.7427 67.5822 35.6808 66.7625 37.2977C64.2822 35.4285 60.6125 36.2733 57.8652 37.7588L57.836 37.7421C57.0975 38.1801 56.651 38.4474 55.7937 38.9563L55.8834 39.0086C54.5191 40.0038 53.2526 41.22 52.1199 42.5843L52.0887 42.5612C51.319 43.5626 51.613 43.1765 50.8266 44.2239L50.8745 44.2593C49.9985 45.521 49.5894 46.0526 48.73 47.8674Z" fill="#FF0303"></path>
        <path id="part4" d="M47.5843 69.3535C42.7988 66.4559 41.1925 61.0322 41.5076 55.5095C43.3183 55.8433 44.9328 56.3417 46.6374 57.2307C46.7396 60.4434 47.8828 63.9899 50.8765 65.1745L50.8242 65.3144C51.3498 65.3979 52.4014 65.5606 52.9269 65.6441L52.95 65.5857C54.8671 65.6587 57.4207 64.7949 58.8641 63.8667L58.8726 63.975C59.4797 63.5431 60.3641 62.9173 60.865 62.5543L60.8629 62.5166C65.7757 58.7929 68.9466 52.8536 69.6159 47.3819C71.3975 46.4556 73.5067 44.4737 74.7854 42.2291C77.1672 58.8493 59.1813 76.0563 47.5842 69.3529L47.5843 69.3535Z" fill="#FF0303"></path>
    </defs>
</svg>
