<svg xmlns="http://www.w3.org/2000/svg" width="120" height="120" viewBox="0 0 120 120">
  <defs>
    <clipPath id="clip">
      <rect width="120" height="120" rx="18" ry="18"/>
    </clipPath>
    <linearGradient id="gold" x1="0" y1="95" x2="0" y2="120" gradientUnits="userSpaceOnUse">
      <stop offset="0" stop-color="#f5cd0e"/>
      <stop offset="1" stop-color="#605426"/>
    </linearGradient>
  </defs>

  <g clip-path="url(#clip)">
    <rect width="120" height="120" fill="#3b3663"/>
    <rect y="95" width="120" height="25" fill="url(#gold)"/>
    <path fill="#fff" stroke="#fff" stroke-width=".76" stroke-linecap="round" stroke-linejoin="round"
      d="m 82.543884,36.909709 c 0,7.729026 -5.911624,14.541156 -14.039008,16.473412 1.808753,2.341765 3.010429,4.431405 4.036215,5.802682 1.21058,1.600343 1.65704,2.434648 3.064117,5.008915 l 1.89986,3.426641 1.904695,4.299582 c 1.944149,3.601477 1.442464,2.896215 3.36117,4.58631 0.28876,0.254354 1.311631,0.637018 2.25851,0.512356 0.946879,-0.124661 1.459773,-0.186992 1.538679,-0.186992 2.525012,0 3.787519,1.059625 3.787519,3.178876 0,2.306241 -1.65704,3.459361 -4.971119,3.459361 h -1.183598 l -2.840639,-0.280487 -2.707772,-0.967687 c -2.365166,-0.994792 -2.428301,-1.121956 -4.316456,-3.062312 -1.580166,-2.06097 -1.925575,-3.641691 -5.594461,-9.929003 L 66.652108,65.36155 c -1.742047,-3.01214 -1.932445,-3.709627 -3.158299,-5.822326 -0.794671,-1.708799 -1.590076,-2.689482 -3.801801,-3.641363 l -2.302031,-0.990745 -5.856399,-0.04613 c -1.104693,0.06234 -1.814853,0.311654 -2.13048,0.747969 -0.315626,0.436317 -0.47344,1.464776 -0.47344,3.085377 v 2.243912 c 0,7.168046 0.197267,11.687031 0.5918,13.556957 0.394534,1.807594 1.341413,2.711392 2.840639,2.711392 0.157813,0 0.867973,-0.06234 2.13048,-0.186992 0.394533,-0.124662 0.986332,-0.186993 1.775398,-0.186993 2.525012,0 3.787519,1.028459 3.787519,3.08538 0,1.059624 -0.433987,1.963422 -1.30196,2.711392 -0.867972,0.685639 -1.933212,1.028458 -3.195719,1.028458 -1.104692,0 -2.919545,-0.186992 -5.444557,-0.560978 -2.525012,-0.373985 -4.458225,-0.560977 -5.799637,-0.560977 -1.262507,0 -3.077359,0.186992 -5.444558,0.560977 -2.367199,0.373986 -4.142598,0.560978 -5.326198,0.560978 -1.262506,0 -2.327745,-0.342819 -3.195718,-1.028458 -0.789067,-0.74797 -1.1836,-1.651768 -1.1836,-2.711392 0,-2.056921 1.262506,-3.08538 3.787518,-3.08538 0.789067,0 1.380867,0.06234 1.7754,0.186993 1.262506,0.124661 1.972666,0.186992 2.130479,0.186992 1.499226,0 2.446105,-0.903798 2.840639,-2.711392 0.394533,-1.869926 0.591799,-6.388911 0.591799,-13.556957 V 43.173958 c 0,-7.230377 -0.197266,-11.749363 -0.591799,-13.556958 -0.394534,-1.869926 -1.341413,-2.804889 -2.840639,-2.804889 -0.394533,0 -1.025787,0.0935 -1.893759,0.28049 -0.867973,0.124662 -1.53868,0.186993 -2.01212,0.186993 -2.525012,0 -3.787518,-1.059624 -3.787518,-3.178874 0,-2.430903 1.499226,-3.646354 4.497678,-3.646354 1.262507,0 3.156266,0.186992 5.681278,0.560978 2.603919,0.311654 4.576585,0.467481 5.917998,0.467481 2.051572,0 5.12893,-0.0935 9.232076,-0.280489 4.103145,-0.249324 7.180503,-0.373985 9.232075,-0.373985 5.996904,0 10.612943,1.402444 13.848114,4.207331 3.314079,2.742558 4.971118,6.700566 4.971118,11.874027 z m -33.614226,9.162635 c 0,1.371278 0.82852,2.088083 2.48556,2.150414 l 2.367199,0.0935 c 0.23672,0.06234 0.631253,0.0935 1.183599,0.0935 0.394533,0 1.065239,-0.03117 2.012119,-0.0935 3.550799,-0.186992 6.391437,-0.373984 8.521916,-0.560976 2.525013,-0.498648 4.537132,-1.682933 6.036358,-3.552859 1.499226,-1.869926 2.248839,-4.145001 2.248839,-6.825226 0,-7.105718 -4.576585,-10.658575 -13.729754,-10.658575 -4.103145,0 -6.983237,0.342819 -8.640276,1.028458 -1.65704,0.68564 -2.48556,1.838761 -2.48556,3.459362 z"/>
  </g>
</svg>
